<?xml version="1.0" encoding="UTF-8" standalone="no"?>
<!-- Created with Inkscape (http://www.inkscape.org/) -->

<svg
   width="512"
   height="512"
   viewBox="0 0 512 512"
   version="1.1"
   id="svg1"
   xml:space="preserve"
   inkscape:version="1.4.2 (ebf0e940d0, 2025-05-08)"
   sodipodi:docname="icon.svg"
   inkscape:export-filename="icon20.png"
   inkscape:export-xdpi="3.75"
   inkscape:export-ydpi="3.75"
   xmlns:inkscape="http://www.inkscape.org/namespaces/inkscape"
   xmlns:sodipodi="http://sodipodi.sourceforge.net/DTD/sodipodi-0.dtd"
   xmlns="http://www.w3.org/2000/svg"
   xmlns:svg="http://www.w3.org/2000/svg"><sodipodi:namedview
     id="namedview1"
     pagecolor="#505050"
     bordercolor="#eeeeee"
     borderopacity="1"
     inkscape:showpageshadow="0"
     inkscape:pageopacity="0"
     inkscape:pagecheckerboard="0"
     inkscape:deskcolor="#505050"
     inkscape:document-units="px"
     inkscape:zoom="1.7070312"
     inkscape:cx="256"
     inkscape:cy="255.70709"
     inkscape:window-width="2560"
     inkscape:window-height="1380"
     inkscape:window-x="0"
     inkscape:window-y="32"
     inkscape:window-maximized="1"
     inkscape:current-layer="g1" /><defs
     id="defs1" /><g
     inkscape:label="Layer 1"
     inkscape:groupmode="layer"
     id="layer1"><rect
       style="fill:#37296e;fill-opacity:1;stroke-width:3.56842"
       id="rect1"
       width="513.75745"
       height="513.31854"
       x="-0.58581233"
       y="-0.14692456" /><g
       id="g1"
       transform="matrix(3.96847,0,0,3.96847,131.66587,130.61878)"><g
         fill="#42ade2"
         id="g4"><path
           d="M 16.1,48.5 C 15.6,48.4 15.2,48.3 14.7,48.1 14.2,47.9 13.8,47.8 13.4,47.6 12.5,47.2 11.7,46.7 10.9,46.1 9.3,45 8,43.5 7,41.7 6,40 5.4,38 5.3,36.1 5.2,35.1 5.3,34.2 5.4,33.2 5.5,32.7 5.6,32.3 5.7,31.8 5.8,31.3 6,30.9 6.1,30.4 l 0.1,1.4 c 0,0.5 0.1,0.9 0.2,1.4 0.1,0.9 0.3,1.8 0.5,2.6 0.4,1.7 1,3.3 1.9,4.8 0.9,1.5 1.9,2.9 3.2,4.2 0.6,0.6 1.3,1.2 2,1.8 0.3,0.3 0.7,0.6 1.1,0.9 l 1,1"
           id="path1" /><path
           d="m 15.8,52.1 c -0.3,0.2 -0.7,0.3 -1.1,0.4 -0.4,0.1 -0.7,0.2 -1.1,0.2 -0.7,0.1 -1.5,0.2 -2.3,0.1 C 9.8,52.7 8.2,52.3 6.9,51.6 5.5,50.9 4.3,49.8 3.5,48.5 3.1,47.9 2.7,47.2 2.4,46.5 2.3,46.2 2.2,45.8 2.1,45.4 2.1,45.1 2,44.8 2,44.4 c 0.3,0.3 0.5,0.6 0.7,0.8 0.3,0.3 0.5,0.6 0.7,0.8 0.5,0.5 0.9,1 1.4,1.4 1,0.9 2,1.7 3.2,2.3 1.1,0.6 2.4,1.1 3.6,1.5 0.6,0.2 1.3,0.3 2,0.5 0.3,0.1 0.7,0.1 1,0.2 0.5,0.1 0.8,0.1 1.2,0.2"
           id="path2" /><path
           d="m 38.4,3.5 c 0.5,0.1 0.9,0.3 1.4,0.5 0.5,0.2 0.9,0.4 1.3,0.6 0.9,0.5 1.7,1 2.5,1.6 1.6,1.2 2.9,2.8 3.8,4.6 0.9,1.8 1.4,3.8 1.4,5.7 0,1 -0.1,1.9 -0.3,2.9 -0.1,0.5 -0.2,0.9 -0.4,1.4 -0.2,0.5 -0.3,0.9 -0.5,1.3 l -0.1,-1.4 c 0,-0.5 0,-0.9 -0.1,-1.4 L 47.1,16.6 C 46.8,14.9 46.2,13.2 45.4,11.6 44.6,10 43.6,8.6 42.4,7.3 41.8,6.6 41.1,6 40.5,5.3 40.2,5 39.8,4.7 39.4,4.4 l -1,-0.9"
           id="path3" /><path
           d="m 47.1,3.1 c 0.4,0.1 0.7,0.2 1,0.4 0.3,0.1 0.7,0.3 1,0.5 0.6,0.4 1.2,0.8 1.8,1.3 1.1,1 2,2.2 2.5,3.6 0.6,1.4 0.8,2.9 0.6,4.4 -0.1,0.7 -0.3,1.4 -0.5,2.1 -0.1,0.3 -0.3,0.7 -0.4,1 -0.2,0.3 -0.3,0.6 -0.6,0.9 v -2 C 52.5,14.6 52.4,14 52.4,13.4 52.2,12.1 52,10.9 51.5,9.8 51,8.6 50.4,7.6 49.7,6.5 49.3,6 48.9,5.4 48.5,4.9 48.3,4.6 48.1,4.4 47.8,4.1 47.6,3.6 47.3,3.3 47.1,3.1"
           id="path4" /></g><g
         fill="#ffdd67"
         id="g6"><path
           d="m 10,18 c -2,0.9 -2.7,3.3 -1.8,5.3 l 12.6,26.3 7,-3.3 L 15.2,19.9 C 14.3,17.9 12,17 10,18"
           id="path5"
           style="display:inline;fill:#f4d03e;fill-opacity:1.0" /><path
           d="m 43.1,38.9 7.4,-3.5 -14.4,-30 c -1,-2 -3.4,-2.9 -5.5,-1.9 -2,1 -2.9,3.4 -1.9,5.5 l 14.4,29.9"
           id="path6"
           style="display:inline;stroke-width:0.99988157;stroke-dasharray:none;fill:#f4d03e;fill-opacity:1" /></g><path
         d="M 30.7,3.4 C 30.5,3.5 30.3,3.6 30.1,3.8 32,3.3 34,4.2 34.9,6 l 14.4,30 1.3,-0.6 -14.4,-30 c -1,-2.1 -3.4,-3 -5.5,-2"
         fill="#eba352"
         id="path7"
         style="display:inline" /><path
         d="M 27.8,46.2 35.5,42.5 20.8,11.9 c -1,-2.1 -3.6,-3.1 -5.7,-2.1 -2.1,1 -3,3.6 -2,5.7 l 14.7,30.7"
         fill="#ffdd67"
         id="path8"
         style="display:inline;fill:#f4d03e;fill-opacity:1" /><path
         d="m 15.1,9.9 c -0.2,0.1 -0.4,0.2 -0.6,0.4 1.9,-0.5 4.1,0.4 5,2.3 l 9.1,19.1 2.2,1.3 -10,-21 C 19.8,9.8 17.3,8.9 15.1,9.9"
         fill="#eba352"
         id="path9"
         style="display:inline" /><path
         d="M 34.3,40.1 42,36.4 27.3,5.8 c -1,-2.1 -3.6,-3.1 -5.7,-2 -2.1,1 -3,3.6 -2,5.7 l 14.7,30.6"
         fill="#ffdd67"
         id="path10"
         style="display:inline;fill:#f4d03e;fill-opacity:1" /><g
         fill="#eba352"
         id="g12"
         style="display:inline"><path
           d="M 21.6,3.7 C 21.4,3.8 21.2,4 21,4.1 22.9,3.6 25.1,4.5 26,6.4 L 36.3,28 38.5,29.3 27.3,5.8 C 26.3,3.6 23.7,2.7 21.6,3.7"
           id="path11" /><path
           d="m 10,18 c -0.2,0.1 -0.4,0.2 -0.6,0.4 1.8,-0.5 3.7,0.4 4.5,2.2 l 7.5,15.7 2.2,1.3 L 15.2,20 C 14.3,17.9 12,17 10,18"
           id="path12" /></g><path
         d="m 60.8,15 c -2.7,-2.1 -7.1,0.2 -9.3,7.4 -1.5,5 -1.7,6.5 -4.9,8 l -1.8,-3.7 c 0,0 -28.4,13.7 -27.3,15.9 0,0 3.4,10.6 9.2,15.5 8.6,7.4 28.7,-0.5 29.6,-19.6 0.5,-11.1 7.4,-21.2 4.5,-23.5"
         fill="#ffdd67"
         id="path13"
         style="display:inline;fill:#f4d03e;fill-opacity:1" /><g
         fill="#eba352"
         id="g15"><path
           d="m 60.8,15 c -0.5,-0.4 -1.1,-0.6 -1.7,-0.7 0.1,0.1 0.3,0.1 0.4,0.2 3,2.3 -0.1,7.6 -1.8,12.4 -1.4,3.8 -2.6,7.7 -2.4,11.5 0.8,16.6 -15.9,24.5 -25.9,21.5 9.8,4.1 28,-3.7 27.2,-21 -0.2,-3.8 0.9,-7.5 2.4,-11.5 1.6,-4.8 4.7,-10.1 1.8,-12.4"
           id="path14" /><path
           d="m 47.5,30 c -6.2,0.7 -15.3,9.6 -8.9,19.3 -4.7,-9.8 3,-16.4 7.9,-18.7 0.5,-0.4 1,-0.6 1,-0.6"
           id="path15" /></g></g></g></svg>
